<svg xmlns="http://www.w3.org/2000/svg" viewBox="0 0 400 400">
  <!-- Background circle -->
  <circle cx="200" cy="200" r="180" fill="#00ADD8" />
  <circle cx="200" cy="200" r="160" fill="#FFFFFF" opacity="0.1" />
  
  <!-- Gopher silhouette elements -->
  <ellipse cx="200" cy="190" rx="120" ry="100" fill="#5DC9E2" />
  <ellipse cx="150" cy="120" rx="25" ry="35" fill="#5DC9E2" transform="rotate(-15 150 120)" />
  <ellipse cx="250" cy="120" rx="25" ry="35" fill="#5DC9E2" transform="rotate(15 250 120)" />
  
  <!-- Result branch paths -->
  <path d="M140,190 C140,170 120,160 100,160 C80,160 60,170 60,190 L60,260 C60,280 80,300 100,300 L160,300" 
        fill="none" stroke="#2A9D8F" stroke-width="20" stroke-linecap="round" stroke-linejoin="round" />
  
  <path d="M260,190 C260,170 280,160 300,160 C320,160 340,170 340,190 L340,260 C340,280 320,300 300,300 L240,300" 
        fill="none" stroke="#E76F51" stroke-width="20" stroke-linecap="round" stroke-linejoin="round" />
  
  <!-- Result bubbles -->
  <circle cx="120" cy="300" r="30" fill="#2A9D8F" />
  <text x="120" y="308" font-family="Arial, sans-serif" font-weight="bold" font-size="24" text-anchor="middle" fill="white">OK</text>
  
  <circle cx="280" cy="300" r="30" fill="#E76F51" />
  <text x="280" y="308" font-family="Arial, sans-serif" font-weight="bold" font-size="24" text-anchor="middle" fill="white">Err</text>
  
  <!-- Central starting point -->
  <circle cx="200" cy="190" r="30" fill="#264653" />
  <text x="200" y="198" font-family="Arial, sans-serif" font-weight="bold" font-size="24" text-anchor="middle" fill="white">R</text>
  
  <!-- Go mascot eyes -->
  <circle cx="170" cy="160" r="12" fill="#264653" />
  <circle cx="230" cy="160" r="12" fill="#264653" />
  <circle cx="173" cy="157" r="4" fill="white" />
  <circle cx="233" cy="157" r="4" fill="white" />
</svg>
